<svg xmlns="http://www.w3.org/2000/svg" xmlns:xlink="http://www.w3.org/1999/xlink" width="500" zoomAndPan="magnify" viewBox="0 0 375 374.999991" height="500" preserveAspectRatio="xMidYMid meet" version="1.0"><path fill="#000000" d="M 65.421875 52.625 C 60.132812 65.070312 57.695312 76.066406 56.488281 83.082031 C 62.339844 49.105469 108.125 16.015625 140.671875 11.1875 C 137.257812 13.621094 131.46875 18.464844 127.601562 26.496094 C 124.609375 32.71875 122.023438 42.386719 124.488281 43.792969 C 127.433594 45.464844 134.261719 33.484375 148.21875 23.515625 C 160.617188 14.65625 172.453125 11.808594 181.980469 9.507812 C 221.320312 0.0273438 261.242188 17.484375 269.242188 21.128906 C 268.921875 21.066406 268.605469 21 268.289062 20.945312 C 197.796875 8.257812 130.265625 53.09375 113.90625 121.933594 C 76.742188 135.582031 43.730469 171.773438 33.152344 211.925781 C 30.664062 221.359375 24.484375 248.210938 33.480469 277.671875 C 12.050781 241.414062 3.035156 197.597656 11.078125 152.894531 C 18.265625 112.960938 37.972656 78.4375 65.421875 52.625 " fill-opacity="1" fill-rule="nonzero"/><path fill="#000000" d="M 134.109375 229.496094 C 153.714844 257.820312 184.144531 278.644531 220.722656 285.226562 C 287.355469 297.21875 351.328125 257.820312 371.957031 195.332031 C 371.921875 201.554688 371.300781 209.066406 369.355469 217.382812 C 363.949219 240.445312 342.574219 283.660156 313.007812 282.316406 C 320.300781 282.648438 331.941406 282.613281 345.652344 279.925781 C 344.757812 281.386719 343.851562 282.835938 342.914062 284.277344 C 331.199219 302.292969 290.984375 322.832031 269.164062 321.050781 C 278.796875 321.835938 296.066406 322.257812 315.878906 316.8125 C 275.273438 355.5 217.40625 374.96875 157.976562 364.273438 C 157.515625 364.1875 157.058594 364.09375 156.597656 364.007812 C 129.589844 317.914062 122.339844 268.496094 134.109375 229.496094 " fill-opacity="1" fill-rule="nonzero"/><path fill="#000000" d="M 167.875 138.054688 C 168.953125 136.820312 171.496094 137.28125 173.554688 139.078125 C 175.613281 140.878906 176.40625 143.335938 175.324219 144.574219 C 174.246094 145.808594 171.703125 145.351562 169.644531 143.550781 C 167.589844 141.753906 166.792969 139.292969 167.875 138.054688 Z M 35.144531 276.46875 C 36.539062 281.035156 38.320312 285.671875 40.574219 290.3125 C 58.28125 326.8125 95.21875 343.730469 97.804688 340.867188 C 98.363281 340.246094 97.214844 338.816406 95.019531 336.5625 C 87.164062 328.515625 65.914062 310.011719 61.441406 280.875 C 57.859375 257.546875 65.8125 232.496094 71.632812 222.515625 C 72.453125 221.113281 73.453125 219.511719 73.453125 219.511719 C 79.675781 209.476562 86.25 202.042969 91.15625 197.097656 C 87.152344 202.691406 61.429688 239.863281 73.257812 285.097656 C 82.289062 319.628906 107.988281 338.871094 116.910156 345.355469 C 119.480469 347.222656 122.035156 348.917969 124.558594 350.464844 C 136.015625 357.5 146.726562 361.402344 154.492188 363.644531 C 153.21875 361.628906 151.992188 359.601562 150.800781 357.570312 C 125.429688 314.273438 118.621094 267.851562 129.675781 231.21875 C 133.660156 218.019531 139.953125 206.085938 148.542969 196.03125 C 155.714844 187.636719 171.328125 172.535156 200.757812 164.484375 C 208.390625 162.398438 214.9375 161.535156 219.449219 161.128906 C 215.664062 157.484375 211.523438 154.03125 207.128906 150.878906 C 199.054688 145.09375 190.113281 140.34375 180.886719 137.382812 C 174.335938 133.148438 163.15625 127.105469 148.570312 125.292969 C 135.96875 123.730469 123.089844 125.621094 110.699219 130.167969 C 75.789062 142.992188 44.777344 176.988281 34.835938 214.707031 C 32.5 223.570312 26.699219 248.792969 35.144531 276.46875 " fill-opacity="1" fill-rule="nonzero"/><path fill="#ffffff" d="M 173.554688 139.078125 C 175.613281 140.878906 176.40625 143.335938 175.324219 144.574219 C 174.246094 145.808594 171.703125 145.351562 169.644531 143.550781 C 167.589844 141.753906 166.792969 139.292969 167.875 138.054688 C 168.953125 136.820312 171.496094 137.28125 173.554688 139.078125 " fill-opacity="1" fill-rule="nonzero"/></svg>